<svg width="236" height="138" viewBox="0 0 236 138" fill="none" xmlns="http://www.w3.org/2000/svg">
<g filter="url(#filter0_ddi_2031_1810)">
<rect x="130" y="4.94141" width="80" height="80" rx="40" fill="#C4A85B"/>
<rect x="128" y="2.94141" width="84" height="84" rx="42" stroke="#0A1C29" stroke-width="4"/>
<g clip-path="url(#clip0_2031_1810)">
<path d="M190 61.0726C189.996 61.5978 189.786 62.1006 189.415 62.4722C189.044 62.8438 188.541 63.0544 188.016 63.0586H151.984C151.458 63.0581 150.953 62.8486 150.581 62.4762C150.209 62.1038 150 61.599 150 61.0726V59.0586H186V35.6586L170 50.0586L150 32.0586V29.0586C150 28.5282 150.211 28.0195 150.586 27.6444C150.961 27.2693 151.47 27.0586 152 27.0586H188C188.53 27.0586 189.039 27.2693 189.414 27.6444C189.789 28.0195 190 28.5282 190 29.0586V61.0726ZM154.868 31.0586L170 44.6786L185.132 31.0586H154.868ZM146 51.0586H162V55.0586H146V51.0586ZM146 41.0586H156V45.0586H146V41.0586Z" fill="#061119"/>
</g>
</g>
<g filter="url(#filter1_dd_2031_1810)">
<rect x="8" y="83.9414" width="220" height="50" rx="20" fill="#C4A85B"/>
<rect x="6" y="81.9414" width="224" height="54" rx="22" stroke="#0A1C29" stroke-width="4"/>
<path d="M47.136 118.022C46.032 118.022 45.088 117.886 44.304 117.614C43.52 117.342 42.864 116.99 42.336 116.558C41.824 116.126 41.416 115.67 41.112 115.19C40.808 114.694 40.576 114.23 40.416 113.798C40.272 113.366 40.176 113.014 40.128 112.742C40.08 112.47 40.056 112.334 40.056 112.334H43.368C43.368 112.334 43.384 112.43 43.416 112.622C43.464 112.814 43.56 113.062 43.704 113.366C43.848 113.654 44.056 113.942 44.328 114.23C44.616 114.518 44.992 114.766 45.456 114.974C45.936 115.166 46.528 115.262 47.232 115.262C48.32 115.262 49.144 115.022 49.704 114.542C50.28 114.046 50.568 113.438 50.568 112.718C50.568 112.11 50.352 111.63 49.92 111.278C49.488 110.91 48.848 110.638 48 110.462L45.648 109.958C44.736 109.766 43.88 109.478 43.08 109.094C42.296 108.71 41.664 108.19 41.184 107.534C40.704 106.878 40.464 106.038 40.464 105.014C40.464 103.942 40.728 103.014 41.256 102.23C41.8 101.446 42.544 100.846 43.488 100.43C44.432 99.9982 45.536 99.7822 46.8 99.7822C48 99.7822 48.992 99.9582 49.776 100.31C50.56 100.662 51.184 101.094 51.648 101.606C52.128 102.118 52.48 102.63 52.704 103.142C52.928 103.654 53.072 104.086 53.136 104.438C53.216 104.79 53.256 104.966 53.256 104.966H50.064C50.064 104.966 50.032 104.846 49.968 104.606C49.904 104.35 49.76 104.062 49.536 103.742C49.312 103.422 48.976 103.142 48.528 102.902C48.08 102.646 47.48 102.518 46.728 102.518C45.656 102.518 44.872 102.758 44.376 103.238C43.896 103.718 43.656 104.238 43.656 104.798C43.656 105.374 43.88 105.822 44.328 106.142C44.776 106.462 45.376 106.71 46.128 106.886L48.648 107.414C49.592 107.622 50.456 107.934 51.24 108.35C52.024 108.766 52.648 109.318 53.112 110.006C53.576 110.678 53.808 111.518 53.808 112.526C53.808 113.55 53.552 114.478 53.04 115.31C52.528 116.142 51.776 116.806 50.784 117.302C49.792 117.782 48.576 118.022 47.136 118.022ZM62.382 118.022C61.294 118.022 60.35 117.838 59.55 117.47C58.766 117.086 58.11 116.582 57.582 115.958C57.07 115.318 56.686 114.606 56.43 113.822C56.174 113.038 56.046 112.238 56.046 111.422C56.046 110.606 56.166 109.814 56.406 109.046C56.662 108.262 57.038 107.55 57.534 106.91C58.046 106.27 58.694 105.766 59.478 105.398C60.262 105.014 61.19 104.822 62.262 104.822C63.414 104.822 64.43 105.078 65.31 105.59C66.19 106.102 66.878 106.854 67.374 107.846C67.87 108.822 68.118 110.038 68.118 111.494V112.31H59.262C59.31 113.174 59.606 113.926 60.15 114.566C60.694 115.19 61.438 115.502 62.382 115.502C62.926 115.502 63.374 115.414 63.726 115.238C64.078 115.062 64.35 114.862 64.542 114.638C64.734 114.398 64.87 114.198 64.95 114.038C65.03 113.862 65.07 113.774 65.07 113.774H68.022C68.022 113.774 67.982 113.918 67.902 114.206C67.822 114.478 67.67 114.83 67.446 115.262C67.238 115.678 66.926 116.102 66.51 116.534C66.094 116.95 65.55 117.302 64.878 117.59C64.206 117.878 63.374 118.022 62.382 118.022ZM59.262 110.222H65.046C64.998 109.23 64.702 108.494 64.158 108.014C63.614 107.534 62.974 107.294 62.238 107.294C61.422 107.294 60.742 107.558 60.198 108.086C59.654 108.598 59.342 109.31 59.262 110.222ZM70.8161 117.782V105.062H74.0081V106.886H74.1521C74.2801 106.662 74.4801 106.39 74.7521 106.07C75.0241 105.734 75.4001 105.446 75.8801 105.206C76.3601 104.95 76.9681 104.822 77.7041 104.822C78.6801 104.822 79.4801 105.046 80.1041 105.494C80.7441 105.926 81.2161 106.502 81.5201 107.222C81.8401 107.942 82.0001 108.718 82.0001 109.55V117.782H78.8081V109.982C78.8081 109.294 78.6161 108.702 78.2321 108.206C77.8481 107.71 77.2721 107.462 76.5041 107.462C75.9121 107.462 75.4321 107.614 75.0641 107.918C74.6961 108.206 74.4241 108.582 74.2481 109.046C74.0881 109.51 74.0081 109.998 74.0081 110.51V117.782H70.8161ZM90.3266 118.022C89.3826 118.022 88.5586 117.838 87.8546 117.47C87.1506 117.086 86.5586 116.582 86.0786 115.958C85.6146 115.318 85.2626 114.606 85.0226 113.822C84.7986 113.038 84.6866 112.238 84.6866 111.422C84.6866 110.606 84.7986 109.806 85.0226 109.022C85.2626 108.238 85.6146 107.534 86.0786 106.91C86.5586 106.27 87.1506 105.766 87.8546 105.398C88.5586 105.014 89.3826 104.822 90.3266 104.822C91.1426 104.822 91.8146 104.958 92.3426 105.23C92.8706 105.486 93.2866 105.774 93.5906 106.094C93.8946 106.398 94.1026 106.646 94.2146 106.838H94.3586V99.5422H97.5506V117.782H94.3586V116.006H94.2146C94.1026 116.198 93.8946 116.454 93.5906 116.774C93.2866 117.094 92.8706 117.382 92.3426 117.638C91.8146 117.894 91.1426 118.022 90.3266 118.022ZM91.1666 115.406C91.8866 115.406 92.4866 115.214 92.9666 114.83C93.4466 114.43 93.8066 113.926 94.0466 113.318C94.2866 112.71 94.4066 112.078 94.4066 111.422C94.4066 110.766 94.2866 110.134 94.0466 109.526C93.8066 108.918 93.4466 108.422 92.9666 108.038C92.4866 107.638 91.8866 107.438 91.1666 107.438C90.4466 107.438 89.8386 107.638 89.3426 108.038C88.8626 108.422 88.5026 108.918 88.2626 109.526C88.0226 110.134 87.9026 110.766 87.9026 111.422C87.9026 112.078 88.0226 112.71 88.2626 113.318C88.5026 113.926 88.8626 114.43 89.3426 114.83C89.8386 115.214 90.4466 115.406 91.1666 115.406ZM110.333 118.022C109.005 118.022 107.997 117.614 107.309 116.798C106.637 115.982 106.301 114.934 106.301 113.654V105.062H109.469V113.126C109.469 113.814 109.653 114.366 110.021 114.782C110.389 115.182 110.909 115.382 111.581 115.382C112.173 115.382 112.653 115.23 113.021 114.926C113.389 114.622 113.653 114.23 113.813 113.75C113.989 113.27 114.077 112.774 114.077 112.262V105.062H117.269V117.782H114.077V115.958H113.933C113.773 116.246 113.541 116.55 113.237 116.87C112.949 117.19 112.565 117.462 112.085 117.686C111.621 117.91 111.037 118.022 110.333 118.022ZM125.382 118.022C124.342 118.022 123.486 117.886 122.814 117.614C122.142 117.326 121.606 116.974 121.206 116.558C120.822 116.126 120.534 115.702 120.342 115.286C120.15 114.87 120.022 114.526 119.958 114.254C119.91 113.966 119.886 113.822 119.886 113.822H122.91C122.91 113.822 122.934 113.91 122.982 114.086C123.046 114.262 123.158 114.47 123.318 114.71C123.494 114.934 123.758 115.134 124.11 115.31C124.462 115.486 124.926 115.574 125.502 115.574C126.19 115.574 126.686 115.43 126.99 115.142C127.294 114.838 127.446 114.502 127.446 114.134C127.446 113.782 127.31 113.502 127.038 113.294C126.782 113.07 126.398 112.902 125.886 112.79L124.134 112.43C123.43 112.286 122.774 112.078 122.166 111.806C121.558 111.518 121.062 111.134 120.678 110.654C120.294 110.158 120.102 109.526 120.102 108.758C120.102 107.622 120.534 106.686 121.398 105.95C122.262 105.198 123.438 104.822 124.926 104.822C125.87 104.822 126.646 104.95 127.254 105.206C127.878 105.462 128.374 105.782 128.742 106.166C129.126 106.55 129.406 106.934 129.582 107.318C129.774 107.702 129.894 108.03 129.942 108.302C130.006 108.558 130.038 108.686 130.038 108.686H127.11C127.11 108.686 127.086 108.614 127.038 108.47C126.99 108.31 126.886 108.134 126.726 107.942C126.582 107.75 126.358 107.582 126.054 107.438C125.766 107.278 125.374 107.198 124.878 107.198C124.206 107.198 123.726 107.342 123.438 107.63C123.166 107.918 123.03 108.222 123.03 108.542C123.03 108.894 123.182 109.166 123.486 109.358C123.79 109.55 124.182 109.694 124.662 109.79L126.318 110.15C127.502 110.39 128.47 110.806 129.222 111.398C129.99 111.99 130.374 112.846 130.374 113.966C130.374 114.718 130.174 115.406 129.774 116.03C129.39 116.638 128.822 117.126 128.07 117.494C127.334 117.846 126.438 118.022 125.382 118.022ZM143.881 104.822C144.697 104.822 145.369 104.958 145.897 105.23C146.425 105.486 146.841 105.774 147.145 106.094C147.449 106.398 147.657 106.646 147.769 106.838H147.913V105.062H151.105V117.782H147.913V116.006H147.769C147.657 116.198 147.449 116.454 147.145 116.774C146.841 117.094 146.425 117.382 145.897 117.638C145.369 117.894 144.697 118.022 143.881 118.022C142.937 118.022 142.113 117.838 141.409 117.47C140.705 117.086 140.113 116.582 139.633 115.958C139.169 115.318 138.817 114.606 138.577 113.822C138.353 113.038 138.241 112.238 138.241 111.422C138.241 110.606 138.353 109.806 138.577 109.022C138.817 108.238 139.169 107.534 139.633 106.91C140.113 106.27 140.705 105.766 141.409 105.398C142.113 105.014 142.937 104.822 143.881 104.822ZM144.721 107.438C144.001 107.438 143.393 107.638 142.897 108.038C142.417 108.422 142.057 108.918 141.817 109.526C141.577 110.134 141.457 110.766 141.457 111.422C141.457 112.078 141.577 112.71 141.817 113.318C142.057 113.926 142.417 114.43 142.897 114.83C143.393 115.214 144.001 115.406 144.721 115.406C145.441 115.406 146.041 115.214 146.521 114.83C147.001 114.43 147.361 113.926 147.601 113.318C147.841 112.71 147.961 112.078 147.961 111.422C147.961 110.766 147.841 110.134 147.601 109.526C147.361 108.918 147.001 108.422 146.521 108.038C146.041 107.638 145.441 107.438 144.721 107.438ZM159.621 117.782V105.062H162.813V106.838H162.933C163.093 106.55 163.317 106.254 163.605 105.95C163.893 105.63 164.261 105.366 164.709 105.158C165.173 104.934 165.741 104.822 166.413 104.822C167.357 104.822 168.133 105.046 168.741 105.494C169.349 105.942 169.797 106.518 170.085 107.222H170.133C170.453 106.614 170.925 106.062 171.549 105.566C172.189 105.07 173.037 104.822 174.093 104.822C174.989 104.822 175.733 105.03 176.325 105.446C176.933 105.846 177.381 106.39 177.669 107.078C177.973 107.766 178.125 108.51 178.125 109.31V117.782H174.933V109.982C174.933 109.246 174.749 108.646 174.381 108.182C174.029 107.702 173.501 107.462 172.797 107.462C172.237 107.462 171.781 107.614 171.429 107.918C171.093 108.206 170.845 108.574 170.685 109.022C170.541 109.47 170.469 109.926 170.469 110.39V117.782H167.277V109.982C167.277 109.246 167.101 108.646 166.749 108.182C166.397 107.702 165.861 107.462 165.141 107.462C164.581 107.462 164.125 107.614 163.773 107.918C163.437 108.206 163.189 108.582 163.029 109.046C162.885 109.494 162.813 109.942 162.813 110.39V117.782H159.621ZM186.444 104.822C187.26 104.822 187.932 104.958 188.46 105.23C188.988 105.486 189.404 105.774 189.708 106.094C190.012 106.398 190.22 106.646 190.332 106.838H190.476V105.062H193.668V117.782H190.476V116.006H190.332C190.22 116.198 190.012 116.454 189.708 116.774C189.404 117.094 188.988 117.382 188.46 117.638C187.932 117.894 187.26 118.022 186.444 118.022C185.5 118.022 184.676 117.838 183.972 117.47C183.268 117.086 182.676 116.582 182.196 115.958C181.732 115.318 181.38 114.606 181.14 113.822C180.916 113.038 180.804 112.238 180.804 111.422C180.804 110.606 180.916 109.806 181.14 109.022C181.38 108.238 181.732 107.534 182.196 106.91C182.676 106.27 183.268 105.766 183.972 105.398C184.676 105.014 185.5 104.822 186.444 104.822ZM187.284 107.438C186.564 107.438 185.956 107.638 185.46 108.038C184.98 108.422 184.62 108.918 184.38 109.526C184.14 110.134 184.02 110.766 184.02 111.422C184.02 112.078 184.14 112.71 184.38 113.318C184.62 113.926 184.98 114.43 185.46 114.83C185.956 115.214 186.564 115.406 187.284 115.406C188.004 115.406 188.604 115.214 189.084 114.83C189.564 114.43 189.924 113.926 190.164 113.318C190.404 112.71 190.524 112.078 190.524 111.422C190.524 110.766 190.404 110.134 190.164 109.526C189.924 108.918 189.564 108.422 189.084 108.038C188.604 107.638 188.004 107.438 187.284 107.438ZM198.619 103.094C198.059 103.094 197.595 102.91 197.227 102.542C196.875 102.174 196.699 101.734 196.699 101.222C196.699 100.71 196.875 100.27 197.227 99.9022C197.595 99.5342 198.059 99.3502 198.619 99.3502C199.179 99.3502 199.643 99.5342 200.011 99.9022C200.379 100.27 200.563 100.71 200.563 101.222C200.563 101.734 200.379 102.174 200.011 102.542C199.643 102.91 199.179 103.094 198.619 103.094ZM197.035 117.782V105.062H200.227V117.782H197.035ZM203.783 117.782L203.807 99.5422H206.975V117.782H203.783Z" fill="#0A1C29"/>
</g>
<defs>
<filter id="filter0_ddi_2031_1810" x="122" y="0.941406" width="96" height="96" filterUnits="userSpaceOnUse" color-interpolation-filters="sRGB">
<feFlood flood-opacity="0" result="BackgroundImageFix"/>
<feColorMatrix in="SourceAlpha" type="matrix" values="0 0 0 0 0 0 0 0 0 0 0 0 0 0 0 0 0 0 127 0" result="hardAlpha"/>
<feOffset dy="4"/>
<feGaussianBlur stdDeviation="2"/>
<feComposite in2="hardAlpha" operator="out"/>
<feColorMatrix type="matrix" values="0 0 0 0 0 0 0 0 0 0 0 0 0 0 0 0 0 0 0.25 0"/>
<feBlend mode="normal" in2="BackgroundImageFix" result="effect1_dropShadow_2031_1810"/>
<feColorMatrix in="SourceAlpha" type="matrix" values="0 0 0 0 0 0 0 0 0 0 0 0 0 0 0 0 0 0 127 0" result="hardAlpha"/>
<feOffset dy="4"/>
<feGaussianBlur stdDeviation="2"/>
<feComposite in2="hardAlpha" operator="out"/>
<feColorMatrix type="matrix" values="0 0 0 0 0 0 0 0 0 0 0 0 0 0 0 0 0 0 0.25 0"/>
<feBlend mode="normal" in2="effect1_dropShadow_2031_1810" result="effect2_dropShadow_2031_1810"/>
<feBlend mode="normal" in="SourceGraphic" in2="effect2_dropShadow_2031_1810" result="shape"/>
<feColorMatrix in="SourceAlpha" type="matrix" values="0 0 0 0 0 0 0 0 0 0 0 0 0 0 0 0 0 0 127 0" result="hardAlpha"/>
<feOffset dy="4"/>
<feGaussianBlur stdDeviation="2"/>
<feComposite in2="hardAlpha" operator="arithmetic" k2="-1" k3="1"/>
<feColorMatrix type="matrix" values="0 0 0 0 0 0 0 0 0 0 0 0 0 0 0 0 0 0 0.25 0"/>
<feBlend mode="normal" in2="shape" result="effect3_innerShadow_2031_1810"/>
</filter>
<filter id="filter1_dd_2031_1810" x="0" y="79.9414" width="236" height="66" filterUnits="userSpaceOnUse" color-interpolation-filters="sRGB">
<feFlood flood-opacity="0" result="BackgroundImageFix"/>
<feColorMatrix in="SourceAlpha" type="matrix" values="0 0 0 0 0 0 0 0 0 0 0 0 0 0 0 0 0 0 127 0" result="hardAlpha"/>
<feOffset dy="4"/>
<feGaussianBlur stdDeviation="2"/>
<feComposite in2="hardAlpha" operator="out"/>
<feColorMatrix type="matrix" values="0 0 0 0 0 0 0 0 0 0 0 0 0 0 0 0 0 0 0.25 0"/>
<feBlend mode="normal" in2="BackgroundImageFix" result="effect1_dropShadow_2031_1810"/>
<feColorMatrix in="SourceAlpha" type="matrix" values="0 0 0 0 0 0 0 0 0 0 0 0 0 0 0 0 0 0 127 0" result="hardAlpha"/>
<feOffset dy="4"/>
<feGaussianBlur stdDeviation="2"/>
<feComposite in2="hardAlpha" operator="out"/>
<feColorMatrix type="matrix" values="0 0 0 0 0 0 0 0 0 0 0 0 0 0 0 0 0 0 0.25 0"/>
<feBlend mode="normal" in2="effect1_dropShadow_2031_1810" result="effect2_dropShadow_2031_1810"/>
<feBlend mode="normal" in="SourceGraphic" in2="effect2_dropShadow_2031_1810" result="shape"/>
</filter>
<clipPath id="clip0_2031_1810">
<rect width="48" height="48" fill="white" transform="translate(146 21.0586)"/>
</clipPath>
</defs>
</svg>
