<svg width="48" height="48" viewBox="0 0 48 48" fill="none" xmlns="http://www.w3.org/2000/svg">
<g clip-path="url(#clip0_487_2229)">
<path d="M39 31.3667V37.26C39.0002 37.682 38.8403 38.0883 38.5527 38.397C38.265 38.7057 37.8709 38.8938 37.45 38.9233C36.7217 38.9733 36.1267 39 35.6667 39C20.9383 39 9 27.0617 9 12.3333C9 11.8733 9.025 11.2783 9.07667 10.55C9.1062 10.1291 9.2943 9.73502 9.60301 9.44735C9.91171 9.15968 10.318 8.99981 10.74 9H16.6333C16.8401 8.99979 17.0395 9.07643 17.1929 9.21503C17.3463 9.35364 17.4427 9.5443 17.4633 9.75C17.5017 10.1333 17.5367 10.4383 17.57 10.67C17.9012 12.9815 18.58 15.2297 19.5833 17.3383C19.7417 17.6717 19.6383 18.07 19.3383 18.2833L15.7417 20.8533C17.9408 25.9774 22.0242 30.0609 27.1483 32.26L29.715 28.67C29.8199 28.5233 29.973 28.4181 30.1475 28.3728C30.322 28.3274 30.5069 28.3447 30.67 28.4217C32.7784 29.4231 35.026 30.1002 37.3367 30.43C37.5683 30.4633 37.8733 30.5 38.2533 30.5367C38.4587 30.5577 38.649 30.6543 38.7873 30.8076C38.9255 30.961 39.0019 31.1602 39.0017 31.3667H39Z" fill="#EBCA6D"/>
</g>
<defs>
<clipPath id="clip0_487_2229">
<rect width="40" height="40" fill="white" transform="translate(4 4)"/>
</clipPath>
</defs>
</svg>
