<svg width="48" height="48" viewBox="0 0 48 48" fill="none" xmlns="http://www.w3.org/2000/svg">
<g clip-path="url(#clip0_487_2233)">
<path d="M40.6667 37.345C40.6636 37.7827 40.4885 38.2016 40.1791 38.5113C39.8698 38.821 39.451 38.9965 39.0133 39H8.98667C8.54802 38.9996 8.12749 38.825 7.81748 38.5147C7.50747 38.2043 7.33333 37.7836 7.33333 37.345V35.6667H37.3333V16.1667L24 28.1667L7.33333 13.1667V10.6667C7.33333 10.2246 7.50893 9.80072 7.82149 9.48816C8.13405 9.17559 8.55797 9 9 9H39C39.442 9 39.866 9.17559 40.1785 9.48816C40.4911 9.80072 40.6667 10.2246 40.6667 10.6667V37.345ZM11.39 12.3333L24 23.6833L36.61 12.3333H11.39ZM4 29H17.3333V32.3333H4V29ZM4 20.6667H12.3333V24H4V20.6667Z" fill="#EBCA6D"/>
</g>
<defs>
<clipPath id="clip0_487_2233">
<rect width="40" height="40" fill="white" transform="translate(4 4)"/>
</clipPath>
</defs>
</svg>
