<svg width="48" height="48" viewBox="0 0 48 48" fill="none" xmlns="http://www.w3.org/2000/svg">
<g clip-path="url(#clip0_487_2237)">
<path d="M15.5666 12.3333C15.5661 13.2173 15.2145 14.065 14.5891 14.6898C13.9636 15.3146 13.1156 15.6654 12.2316 15.665C11.3475 15.6645 10.4998 15.3129 9.87503 14.6875C9.25023 14.062 8.89946 13.214 8.8999 12.33C8.90034 11.4459 9.25196 10.5982 9.87739 9.97342C10.5028 9.34861 11.3508 8.99785 12.2349 8.99829C13.119 8.99873 13.9666 9.35035 14.5914 9.97578C15.2162 10.6012 15.567 11.4492 15.5666 12.3333ZM15.6666 18.1333H8.9999V39H15.6666V18.1333ZM26.1999 18.1333H19.5666V39H26.1332V28.05C26.1332 21.95 34.0832 21.3833 34.0832 28.05V39H40.6666V25.7833C40.6666 15.5 28.8999 15.8833 26.1332 20.9333L26.1999 18.1333Z" fill="#EBCA6D"/>
</g>
<defs>
<clipPath id="clip0_487_2237">
<rect width="40" height="40" fill="white" transform="translate(4 4)"/>
</clipPath>
</defs>
</svg>
