<svg width="48" height="48" viewBox="0 0 48 48" fill="none" xmlns="http://www.w3.org/2000/svg">
<g clip-path="url(#clip0_816_1223)">
<path d="M15.61 25.8033C17.1739 28.5508 19.4492 30.8261 22.1967 32.39L23.67 30.3267C23.9069 29.9949 24.2572 29.7615 24.6547 29.6706C25.0521 29.5796 25.4691 29.6376 25.8267 29.8333C28.1839 31.1215 30.787 31.8963 33.465 32.1067C33.883 32.1398 34.2731 32.3292 34.5576 32.6372C34.8421 32.9452 35.0001 33.3491 35 33.7683V41.205C35.0001 41.6177 34.8471 42.0157 34.5706 42.322C34.2941 42.6284 33.9138 42.8212 33.5033 42.8633C32.62 42.955 31.73 43 30.8333 43C16.5667 43 5 31.4333 5 17.1667C5 16.27 5.045 15.38 5.13667 14.4967C5.17876 14.0862 5.37164 13.7059 5.67798 13.4294C5.98433 13.1529 6.38234 12.9999 6.795 13H14.2317C14.6509 12.9999 15.0548 13.1579 15.3628 13.4424C15.6708 13.7269 15.8602 14.117 15.8933 14.535C16.1037 17.213 16.8785 19.8161 18.1667 22.1733C18.3624 22.5309 18.4204 22.9479 18.3294 23.3453C18.2385 23.7427 18.0051 24.0931 17.6733 24.33L15.61 25.8033ZM11.4067 24.7083L14.5733 22.4467C13.6746 20.5068 13.0589 18.4481 12.745 16.3333H8.35C8.34 16.61 8.335 16.8883 8.335 17.1667C8.33333 29.5933 18.4067 39.6667 30.8333 39.6667C31.1117 39.6667 31.39 39.6617 31.6667 39.65V35.255C29.5519 34.9411 27.4932 34.3254 25.5533 33.4267L23.2917 36.5933C22.3811 36.2395 21.4967 35.8218 20.645 35.3433L20.5483 35.2883C17.2793 33.4279 14.5721 30.7207 12.7117 27.4517L12.6567 27.355C12.1782 26.5033 11.7605 25.6189 11.4067 24.7083Z" fill="#EBCA6D"/>
</g>
<g clip-path="url(#clip1_816_1223)">
<path d="M45.6667 23.3415C45.6645 23.6479 45.5419 23.9411 45.3254 24.1579C45.1089 24.3747 44.8157 24.4976 44.5093 24.5H23.4907C23.1836 24.4997 22.8892 24.3775 22.6722 24.1603C22.4552 23.943 22.3333 23.6486 22.3333 23.3415V22.1667H43.3333V8.51667L34 16.9167L22.3333 6.41667V4.66667C22.3333 4.35725 22.4562 4.0605 22.675 3.84171C22.8938 3.62292 23.1906 3.5 23.5 3.5H44.5C44.8094 3.5 45.1062 3.62292 45.325 3.84171C45.5438 4.0605 45.6667 4.35725 45.6667 4.66667V23.3415ZM25.173 5.83333L34 13.7783L42.827 5.83333H25.173ZM20 17.5H29.3333V19.8333H20V17.5ZM20 11.6667H25.8333V14H20V11.6667Z" fill="#EBCA6D"/>
</g>
<defs>
<clipPath id="clip0_816_1223">
<rect width="40" height="40" fill="white" transform="translate(0 8)"/>
</clipPath>
<clipPath id="clip1_816_1223">
<rect width="28" height="28" fill="white" transform="translate(20)"/>
</clipPath>
</defs>
</svg>
