<svg width="48" height="48" viewBox="0 0 48 48" fill="none" xmlns="http://www.w3.org/2000/svg">
<g clip-path="url(#clip0_816_1000)">
<path d="M24 25.6668C17.5565 25.6668 12.3333 20.4437 12.3333 14.0002C12.3333 7.55666 17.5565 2.3335 24 2.3335C30.4435 2.3335 35.6666 7.55666 35.6666 14.0002C35.6666 20.4437 30.4435 25.6668 24 25.6668ZM24 23.3335C26.4753 23.3335 28.8493 22.3502 30.5996 20.5998C32.35 18.8495 33.3333 16.4755 33.3333 14.0002C33.3333 11.5248 32.35 9.15084 30.5996 7.4005C28.8493 5.65016 26.4753 4.66683 24 4.66683C21.5246 4.66683 19.1507 5.65016 17.4003 7.4005C15.65 9.15084 14.6666 11.5248 14.6666 14.0002C14.6666 16.4755 15.65 18.8495 17.4003 20.5998C19.1507 22.3502 21.5246 23.3335 24 23.3335ZM22.8333 8.16683H25.1666V10.5002H22.8333V8.16683ZM22.8333 12.8335H25.1666V19.8335H22.8333V12.8335Z" fill="#EBCA6D"/>
</g>
<g clip-path="url(#clip1_816_1000)">
<path d="M4 40C4 37.8783 4.84285 35.8434 6.34315 34.3431C7.84344 32.8429 9.87827 32 12 32C14.1217 32 16.1566 32.8429 17.6569 34.3431C19.1571 35.8434 20 37.8783 20 40H4ZM13 34.083V38H17.659C17.3015 36.9914 16.6812 36.0966 15.8621 35.408C15.0431 34.7193 14.055 34.2619 13 34.083ZM11 38V34.083C9.945 34.2619 8.95691 34.7193 8.13785 35.408C7.31879 36.0966 6.69847 36.9914 6.341 38H11ZM12 31C8.685 31 6 28.315 6 25C6 21.685 8.685 19 12 19C15.315 19 18 21.685 18 25C18 28.315 15.315 31 12 31ZM12 29C14.21 29 16 27.21 16 25C16 22.79 14.21 21 12 21C9.79 21 8 22.79 8 25C8 27.21 9.79 29 12 29Z" fill="#EBCA6D"/>
</g>
<g clip-path="url(#clip2_816_1000)">
<path d="M28 41C28 38.8783 28.8429 36.8434 30.3431 35.3431C31.8434 33.8429 33.8783 33 36 33C38.1217 33 40.1566 33.8429 41.6569 35.3431C43.1571 36.8434 44 38.8783 44 41H28ZM37 35.083V39H41.659C41.3015 37.9914 40.6812 37.0966 39.8621 36.408C39.0431 35.7193 38.055 35.2619 37 35.083ZM35 39V35.083C33.945 35.2619 32.9569 35.7193 32.1379 36.408C31.3188 37.0966 30.6985 37.9914 30.341 39H35ZM36 32C32.685 32 30 29.315 30 26C30 22.685 32.685 20 36 20C39.315 20 42 22.685 42 26C42 29.315 39.315 32 36 32ZM36 30C38.21 30 40 28.21 40 26C40 23.79 38.21 22 36 22C33.79 22 32 23.79 32 26C32 28.21 33.79 30 36 30Z" fill="#EBCA6D"/>
</g>
<g clip-path="url(#clip3_816_1000)">
<path d="M16 46C16 43.8783 16.8429 41.8434 18.3431 40.3431C19.8434 38.8429 21.8783 38 24 38C26.1217 38 28.1566 38.8429 29.6569 40.3431C31.1571 41.8434 32 43.8783 32 46H16ZM25 40.083V44H29.659C29.3015 42.9914 28.6812 42.0966 27.8621 41.408C27.0431 40.7193 26.055 40.2619 25 40.083ZM23 44V40.083C21.945 40.2619 20.9569 40.7193 20.1379 41.408C19.3188 42.0966 18.6985 42.9914 18.341 44H23ZM24 37C20.685 37 18 34.315 18 31C18 27.685 20.685 25 24 25C27.315 25 30 27.685 30 31C30 34.315 27.315 37 24 37ZM24 35C26.21 35 28 33.21 28 31C28 28.79 26.21 27 24 27C21.79 27 20 28.79 20 31C20 33.21 21.79 35 24 35Z" fill="#EBCA6D"/>
</g>
<defs>
<clipPath id="clip0_816_1000">
<rect width="28" height="28" fill="white" transform="translate(10)"/>
</clipPath>
<clipPath id="clip1_816_1000">
<rect width="24" height="24" fill="white" transform="translate(0 18)"/>
</clipPath>
<clipPath id="clip2_816_1000">
<rect width="24" height="24" fill="white" transform="translate(24 19)"/>
</clipPath>
<clipPath id="clip3_816_1000">
<rect width="24" height="24" fill="white" transform="translate(12 24)"/>
</clipPath>
</defs>
</svg>
